<svg xmlns="http://www.w3.org/2000/svg" viewBox="0 0 100 100">
  <style>
    path, circle { fill: #1b4b33; }
    @media (prefers-color-scheme: dark) {
      path, circle { fill: #7fb074; }
    }
  </style>
  
  <!-- Staff -->
  <path d="M50 15 L50 85" stroke-width="3" stroke="currentColor" fill="none"/>
  
  <!-- Top Orb -->
  <circle cx="50" cy="12" r="4"/>
  
  <!-- Wings -->
  <path d="
    M30 32
    C25 25, 35 20, 50 25
    C65 20, 75 25, 70 32
    C65 35, 55 32, 50 30
    C45 32, 35 35, 30 32
    Z
  "/>
  
  <!-- Snakes -->
  <path d="
    M42 28
    C35 35, 35 42, 42 48
    C50 55, 42 62, 42 68
    C42 74, 45 82, 45 85
    M45 85 L43 82 M45 85 L47 82
  "/>
  
  <path d="
    M58 28
    C65 35, 65 42, 58 48
    C50 55, 58 62, 58 68
    C58 74, 55 82, 55 85
    M55 85 L53 82 M55 85 L57 82
  "/>
</svg> 